<svg xmlns="http://www.w3.org/2000/svg" viewBox="0 0 128 128" fill="none">
  <defs>
    <linearGradient id="g" x1="18" y1="20" x2="110" y2="112" gradientUnits="userSpaceOnUse">
      <stop stop-color="#2F83FF"/>
      <stop offset="1" stop-color="#6F82FF"/>
    </linearGradient>
  </defs>
  <rect x="10" y="10" width="108" height="108" rx="28" fill="url(#g)"/>
  <path d="M38 58c0-6 5-11 11-11h10c6 0 11 5 11 11v10c0 6-5 11-11 11H49c-6 0-11-5-11-11V58Zm58 0c0-6-5-11-11-11H75c-6 0-11 5-11 11v10c0 6 5 11 11 11h10c6 0 11-5 11-11V58Z" fill="#fff" fill-opacity=".95"/>
  <path d="M58 58h12" stroke="#fff" stroke-width="6" stroke-linecap="round" stroke-opacity=".95"/>
  <path d="M45 92c6 6 14 10 24 10s18-4 24-10" stroke="#fff" stroke-width="7" stroke-linecap="round" stroke-opacity=".9"/>
  <path d="M42 86c5-4 13-7 22-7" stroke="#fff" stroke-width="6" stroke-linecap="round" stroke-opacity=".85"/>
  <path d="M86 86c-5-4-13-7-22-7" stroke="#fff" stroke-width="6" stroke-linecap="round" stroke-opacity=".85"/>
</svg>
